<?xml version="1.0" encoding="UTF-8"?>
<svg id="Layer_1" xmlns="http://www.w3.org/2000/svg" version="1.1" viewBox="0 0 1215.9 422.3">
  <!-- Generator: Adobe Illustrator 29.7.1, SVG Export Plug-In . SVG Version: 2.1.1 Build 8)  -->
  <defs>
    <style>
      .st0 {
        fill: #8e9499;
      }

      .st0, .st1, .st2, .st3, .st4, .st5, .st6, .st7, .st8, .st9, .st10 {
        fill-rule: evenodd;
      }

      .st1 {
        fill: #8e959a;
      }

      .st2 {
        fill: #8f9499;
      }

      .st3 {
        fill: #adb2b4;
      }

      .st4 {
        fill: #c6cacc;
      }

      .st5 {
        fill: #8d9499;
      }

      .st6 {
        fill: #8d9398;
      }

      .st7 {
        fill: #8d9399;
      }

      .st8 {
        fill: #8c9398;
      }

      .st9 {
        fill: #8c9399;
      }

      .st10 {
        fill: #8f949a;
      }
    </style>
  </defs>
  <g>
    <path class="st5" d="M202.6,0c8.1,3.4,13.2,9.4,15.4,18.2,2,11.4.1,22-5.7,31.9-2.3,2.7-5,5-8,6.8-10-7.4-14.8-17.5-14.2-30.2.7-10.6,4.8-19.5,12.5-26.7Z"/>
    <path class="st5" d="M257.2,36.4c4.2-.5,6.7,1.4,7.4,5.7,5.2,16.1,1.6,30-10.8,41.5-3.1,1.9-6.3,3.6-9.7,5.1-8.6-14.6-8.2-29,1.1-43.3,3.3-4,7.3-7.1,12-9.1Z"/>
    <path class="st0" d="M148,35.3c23.3,11.1,29.3,28.4,18.2,51.8-8.1-.9-14.3-4.9-18.8-12-7-13.4-6.8-26.7.6-39.8Z"/>
    <path class="st7" d="M202.6,74c7,2.3,12.1,6.8,15.4,13.7,7.4,17.1,6.7,33.8-2.3,50.1-3.5,3.9-7.3,7.3-11.4,10.2-13-9.2-19.3-21.9-18.8-38.1.4-14.6,6.1-26.6,17.1-35.9Z"/>
    <path class="st7" d="M282.3,85.4c2.8-.4,5.4,0,8,1.1,11.3,30.4,4.9,56.4-19.4,78-8.2,6-17.3,9.4-27.3,10.2-12.7-31.1-6.3-57.7,19.4-79.7,6.2-3.9,12.7-7.1,19.4-9.7Z"/>
    <path class="st7" d="M119.5,85.4c19.2,3.2,33.8,13.1,43.8,29.6,10.7,19.7,11.3,39.6,1.7,59.8-25.3-4.4-41.8-19-49.5-43.8-4.9-15.8-3.5-31,4-45.5Z"/>
    <path class="st7" d="M59.2,102.4c19.6,1.5,32.3,11.8,38.1,30.7,1.1,8.1.6,16.1-1.7,23.9-13.5.9-23.9-4.4-31.3-15.9-7.3-12.2-9-25.1-5.1-38.7Z"/>
    <path class="st5" d="M340.3,102.4c3.1-.2,6.1,0,9.1.6,6.3,24.2-1.7,42.1-23.9,53.5-4.1,1.3-8.3,1.8-12.5,1.7-6.4-26.4,2.7-44.9,27.3-55.8Z"/>
    <path class="st5" d="M18.2,157.1c26.7.7,43.5,13.9,50.7,39.8,1.1,7,.5,13.8-1.7,20.5-15.1,1.5-27.8-3.5-38.1-14.8-10.8-13.6-14.4-28.7-10.8-45.5Z"/>
    <path class="st7" d="M376.8,157.1h14.8c4.1,29.4-7.6,49.3-35.3,59.8-3.4.8-6.8,1.4-10.2,1.7-2.1-.2-3.8-.9-5.1-2.3-3.4-29.2,8.5-49,35.9-59.2Z"/>
    <path class="st7" d="M86.5,175.3c38.3,1,62.8,20,73.4,56.9,2.4,11.2,1.9,22.2-1.7,33-30.5.8-52.7-12.4-66.6-39.8-7.3-16.1-9-32.8-5.1-50.1Z"/>
    <path class="st9" d="M307.3,175.3h14.8c7.4,39.3-6.7,67.9-42.1,85.9-9.4,4.2-19.3,5.9-29.6,5.1-7.3-38.8,6.4-67.4,41-85.9,5.3-2.1,10.6-3.8,15.9-5.1Z"/>
    <path class="st2" d="M208.3,209.4h5.7c.4,3,.8,6.1,1.1,9.1-7-.6-12,2.2-14.8,8.5,4.3,7.3,10.8,10.2,19.4,8.5v8h-30.7v-8c2.4.3,4.7,0,6.8-1.1-5.8-5.1-6-10.4-.6-15.9,4-3.8,8.3-6.8,13.1-9.1Z"/>
    <path class="st9" d="M23.9,240.2c29.1-3.1,53.2,6.4,72.3,28.5,5.4,7.6,8.9,16,10.2,25-10.9,7.8-23,11.2-36.4,10.2-35.2-1.7-58.6-19.1-70-52.4,7.2-5.5,15.1-9.3,23.9-11.4Z"/>
    <path class="st9" d="M358.6,240.2c17.9-2.7,34.4.7,49.5,10.2-5.5,23-19.4,39.1-41.5,48.4-15.2,5.4-30.8,6.5-46.7,3.4-6.4-1.8-12.3-4.6-17.6-8.5,4.5-19.1,15.3-33.7,32.4-43.8,7.8-4,15.7-7.3,23.9-9.7Z"/>
    <path class="st4" d="M219.7,257.2h-29.6c.3,2.2,0,4.1-1.1,5.7v-6.8c10.5-.4,20.7,0,30.7,1.1Z"/>
    <path class="st5" d="M219.7,257.2c2.3,55,4.2,110,5.7,165h-42.1c2.1-53.1,4-106.2,5.7-159.4,1.1-1.6,1.5-3.5,1.1-5.7h29.6Z"/>
    <path class="st7" d="M249.3,290.3c28.3-.3,46,13.3,52.9,41,.6,6.1.4,12.2-.6,18.2-27.3.6-45-12.3-52.9-38.7-.8-6.9-.7-13.7.6-20.5Z"/>
    <path class="st5" d="M138.9,292.5c6.5-.2,13,.2,19.4,1.1-.8,31.9-17.1,49.8-48.9,53.5-3.8.1-7.4-.6-10.8-2.3,0-27.8,13.5-45.3,40.4-52.4Z"/>
  </g>
  <g>
    <path class="st6" d="M605.7,76.3h15.9c-.4,37.4,0,74.6,1.1,111.6-1.5,12.7,3.4,21.6,14.8,26.7,102.4.8,204.9.8,307.3,0,11-1.9,16.8-8.6,17.6-19.9.6-17.1.8-34.1.6-51.2h17.1c.5,20.9,0,41.8-1.7,62.6-2.7,15.1-11.6,23.6-26.7,25.6-106.6.8-213.2.8-319.9,0-7.2-1.1-13.3-4.4-18.2-9.7-4.9,5.3-11,8.5-18.2,9.7-31.5.8-63,.8-94.5,0-12.8-3.3-20.6-11.5-23.3-24.5-1.6-21.2-2.2-42.4-1.7-63.7h17.1c-.2,17.8,0,35.7.6,53.5,1.1,9.4,6.2,15.3,15.4,17.6,26.6.8,53.1.8,79.7,0,10-2.8,15.5-9.4,16.5-19.9.6-39.5.8-78.9.6-118.4Z"/>
    <path class="st3" d="M605.7,76.3c5.5-1.1,11.2-1.5,17.1-1.1v112.7c-1.1-37-1.5-74.2-1.1-111.6h-15.9Z"/>
    <path class="st6" d="M1081.5,76.3h15.9c-.4,46.5,0,92.8,1.1,138.9,9.6.4,19.1-.1,28.5-1.7,6.1-2.3,9.7-6.6,10.8-13.1,1.7-41.7,2.2-83.4,1.7-125.2h17.1c.2,41.7,0,83.5-.6,125.2-1.1,18-10.4,28.4-27.9,31.3-38.7.6-77.4.8-116.1.6v-17.1h69.4V76.3Z"/>
    <path class="st8" d="M1197.6,75.2h18.2v158.2h-18.2V75.2Z"/>
    <path class="st10" d="M787.9,91.1c13.1-1.5,18.6,4.2,16.5,17.1-4.9,8.2-11.6,9.9-19.9,5.1-6.9-8.7-5.7-16.1,3.4-22.2Z"/>
    <path class="st0" d="M1064.5,115h-35.3v-8c2.8.4,5.4,0,8-1.1-.1-.7-.5-1.1-1.1-1.1-3.9-3.3-5.2-7.4-4-12.5,5.4-10.6,14-15.5,25.6-14.8,1.1,3,1.9,6,2.3,9.1-8.3-.6-14.4,2.6-18.2,9.7,1.5,4.5,4.5,7.6,9.1,9.1,4.5.6,9.1.8,13.7.6v9.1Z"/>
    <path class="st0" d="M764,121.8c10.1-1.4,16.2,2.8,18.2,12.5-.9,8.1-5.5,12.3-13.7,12.5-9.3-1.9-12.9-7.6-10.8-17.1,1.1-3.6,3.2-6.2,6.3-8Z"/>
    <path class="st5" d="M811.8,121.8c11.2-1.1,16.7,3.8,16.5,14.8-2.3,8.5-7.8,11.7-16.5,9.7-6.6-3.6-9.1-9.1-7.4-16.5,1.9-3.3,4.4-5.9,7.4-8Z"/>
    <path class="st8" d="M641,332.4h60.3v14.8c-22.4.2-44.8,0-67.2-.6-4.1-2.1-6.8-5.3-8-9.7v-64.9h13.7c-.4,20.3,0,40.4,1.1,60.3Z"/>
    <path class="st8" d="M883.5,272.1v14.8h-30.7v60.3h-14.8v-60.3h-29.6v-14.8h75.1Z"/>
    <path class="st8" d="M914.2,301.7c15,1.1,30.2,1.5,45.5,1.1v-30.7h14.8v75.1h-14.8v-30.7c-15.4-.4-30.6,0-45.5,1.1-1.1,9.7-1.5,19.5-1.1,29.6h-13.7v-75.1h13.7c-.4,10.1,0,19.9,1.1,29.6Z"/>
    <path class="st1" d="M999.6,272.1h66v14.8h-60.3v14.8h60.3v15.9h-60.3v14.8h60.3v14.8c-22.4.2-44.8,0-67.2-.6-3.8-2.8-6.6-6.4-8.5-10.8-.8-17.8-.8-35.7,0-53.5,1.9-4.8,5.1-8.2,9.7-10.2Z"/>
    <path class="st8" d="M1096.3,332.4h60.3v14.8c-22,.2-44,0-66-.6-5.6-2-8.7-6-9.1-12v-62.6h13.7c-.4,20.3,0,40.4,1.1,60.3Z"/>
    <path class="st7" d="M609.7,282.3c-1.7-4.7-4.9-8-9.7-9.7-18.6-.8-37.2-.8-55.8,0-4.8,1.6-7.9,4.8-9.1,9.7v64.9h13.7c-.4-10.1,0-19.9,1.1-29.6,15-1.1,30.2-1.5,45.5-1.1v30.7h14.8c.2-21.6,0-43.3-.6-64.9ZM594.4,301.7h-44.4v-13.7c15-1.1,30.2-1.5,45.5-1.1.4,5.2,0,10.1-1.1,14.8Z"/>
    <path class="st7" d="M791.8,282.3c-1.7-4.7-4.9-8-9.7-9.7-18.6-.8-37.2-.8-55.8,0-4.8,1.6-7.9,4.8-9.1,9.7v64.9h13.7c-.4-10.1,0-19.9,1.1-29.6,15-1.1,30.2-1.5,45.5-1.1v30.7h14.8c.2-21.6,0-43.3-.6-64.9ZM776.5,301.7h-44.4v-13.7c15-1.1,30.2-1.5,45.5-1.1.4,5.2,0,10.1-1.1,14.8Z"/>
  </g>
</svg>