<svg width="821" height="1246" viewBox="0 0 821 1246" fill="none" xmlns="http://www.w3.org/2000/svg">
<g clip-path="url(#clip0_282_609)">
<mask id="mask0_282_609" style="mask-type:luminance" maskUnits="userSpaceOnUse" x="0" y="0" width="821" height="1246">
<path d="M821 0H0V1246H821V0Z" fill="white"/>
</mask>
<g mask="url(#mask0_282_609)">
<path d="M110.969 1050.15C219.621 1176.95 432.981 1246 432.981 1246C432.981 1246 627.068 1182.6 727.487 1057.69C748.654 1031.18 766.181 1001.96 779.6 970.813H58.6013C72.7541 999.297 90.3407 1025.94 110.969 1050.15Z" fill="#AF0011"/>
<path d="M801.39 664.115C776.938 568.005 724.843 480.197 733.893 396.714C738.009 335.196 791.513 296.906 791.513 296.906C791.513 296.906 689.449 330.799 635.119 425.583C580.788 520.367 574.237 663.479 574.237 663.479C574.237 663.479 556.971 639.624 560.243 515.971C563.514 392.317 551.065 268.391 522.378 217.184C413.726 23.2191 300.93 0 300.93 0C300.93 0 357.723 76.5794 364.311 156.929C369.255 296.906 311.044 368.816 287.763 487.101C266.155 596.765 277.886 656.584 277.886 656.584C277.886 656.584 265.982 639.642 253.197 585.655C239.657 528.498 249.081 481.46 202.165 385.422C158.53 293.136 58.1106 259.243 58.1106 259.243C81.8197 295.806 95.1896 338.1 96.8025 381.643C99.2742 470.15 49.2236 546.829 25.1888 636.49C17.2588 665.141 11.8138 694.421 8.91418 724.007C9.95009 722.98 11.0223 721.963 12.1309 720.991C28.6149 707.183 49.5597 699.841 71.0594 700.333C91.3496 699.753 111.18 706.434 126.98 719.174C130.807 722.352 134.335 725.873 137.521 729.693V703.531H538.67V722.917C546.949 715.268 556.662 709.334 567.247 705.458C577.832 701.582 589.081 699.84 600.343 700.333C611.979 699.846 623.589 701.784 634.435 706.026C645.281 710.267 655.126 716.718 663.342 724.97C668.064 729.986 672.067 735.632 675.237 741.748H678.154C680.255 737.597 682.727 733.644 685.542 729.939C693.211 720 703.375 712.268 715.001 707.528C740.023 697.918 767.719 697.918 792.74 707.528C799.993 710.529 806.72 714.669 812.667 719.792C809.864 701.047 806.103 682.457 801.4 664.097" fill="#AF0011"/>
<path d="M281.793 1091.3V1038.06H319.667V1046.64H292.198V1060.27H318.15V1068.84H292.198V1082.7H319.667V1091.28L281.793 1091.3Z" fill="white"/>
<path d="M342.321 1092.19C338.256 1092.29 334.243 1091.26 330.726 1089.22C327.584 1087.42 325.182 1084.58 323.947 1081.18L331.444 1077.82C332.433 1079.91 333.984 1081.69 335.924 1082.96C337.82 1084.17 340.032 1084.81 342.285 1084.77C343.822 1084.85 345.347 1084.45 346.646 1083.63C347.145 1083.31 347.553 1082.86 347.832 1082.34C348.112 1081.81 348.254 1081.23 348.246 1080.63C348.27 1079.94 348.041 1079.27 347.601 1078.74C347.109 1078.2 346.512 1077.76 345.847 1077.45C345.073 1077.08 344.267 1076.77 343.439 1076.54L336.624 1074.73C333.602 1074.05 330.831 1072.54 328.627 1070.37C326.846 1068.5 325.867 1066.01 325.901 1063.44C325.856 1061.2 326.542 1059 327.855 1057.19C329.256 1055.32 331.142 1053.88 333.307 1053.01C335.841 1051.96 338.563 1051.45 341.303 1051.51C344.946 1051.44 348.541 1052.35 351.708 1054.15C354.636 1055.82 356.903 1058.44 358.132 1061.58L350.481 1064.94C349.761 1063.18 348.485 1061.7 346.846 1060.73C345.149 1059.67 343.184 1059.12 341.185 1059.15C339.778 1059.07 338.382 1059.44 337.205 1060.22C336.751 1060.53 336.38 1060.94 336.126 1061.43C335.873 1061.92 335.744 1062.46 335.751 1063.01C335.745 1063.66 335.96 1064.3 336.36 1064.83C336.819 1065.39 337.408 1065.83 338.077 1066.12C338.911 1066.47 339.767 1066.78 340.64 1067.02L347.301 1068.84C350.27 1069.55 353 1071.03 355.215 1073.13C356.128 1074.05 356.847 1075.14 357.328 1076.35C357.809 1077.55 358.042 1078.84 358.014 1080.13C358.053 1082.36 357.353 1084.53 356.024 1086.32C354.596 1088.18 352.694 1089.62 350.517 1090.5C347.89 1091.55 345.078 1092.06 342.248 1092" fill="white"/>
<path d="M384.839 1091.73C380.871 1091.98 376.962 1090.68 373.934 1088.1C372.605 1086.77 371.574 1085.18 370.908 1083.42C370.242 1081.67 369.957 1079.79 370.072 1077.92V1060.77H362.876V1052.41H363.639C365.351 1052.51 367.042 1051.98 368.382 1050.91C368.963 1050.35 369.415 1049.67 369.705 1048.91C369.995 1048.16 370.118 1047.35 370.063 1046.55V1043.55H380.059V1052.42H389.627V1060.77H380.05V1077.43C380.018 1078.56 380.267 1079.69 380.777 1080.71C381.284 1081.64 382.091 1082.37 383.067 1082.79C384.34 1083.3 385.709 1083.55 387.083 1083.5C387.505 1083.5 387.927 1083.48 388.346 1083.43L389.755 1083.29V1091.3C389.046 1091.39 388.228 1091.49 387.31 1091.58C386.471 1091.67 385.628 1091.72 384.784 1091.72" fill="white"/>
<path d="M412.272 1081.29H402.167V1091.3H412.272V1081.29Z" fill="white"/>
<path d="M432.227 1091.3V1046.34H421.213V1038.05H442.631V1091.28L432.227 1091.3Z" fill="white"/>
<path d="M472.863 1063.79C474.526 1063.82 476.171 1063.44 477.652 1062.68C479.035 1061.96 480.19 1060.88 480.987 1059.54C481.812 1058.14 482.236 1056.55 482.214 1054.92C482.256 1053.27 481.817 1051.63 480.951 1050.22C480.128 1048.9 478.983 1047.82 477.625 1047.07C476.168 1046.29 474.535 1045.9 472.881 1045.93C471.23 1045.91 469.599 1046.3 468.138 1047.07C466.745 1047.8 465.569 1048.89 464.73 1050.22C463.905 1051.63 463.47 1053.24 463.47 1054.88C463.47 1056.52 463.905 1058.12 464.73 1059.54C465.554 1060.88 466.733 1061.97 468.138 1062.68C469.606 1063.43 471.234 1063.81 472.881 1063.79M457.025 1091.34L476.389 1068.05L478.152 1069.77C477.448 1070.26 476.707 1070.69 475.935 1071.06C475.203 1071.39 474.43 1071.63 473.636 1071.77C472.777 1071.91 471.908 1071.99 471.037 1071.98C467.812 1072.04 464.626 1071.28 461.777 1069.77C459.158 1068.35 456.963 1066.27 455.416 1063.73C453.841 1061.11 453.032 1058.1 453.081 1055.04C453.028 1051.81 453.919 1048.63 455.644 1045.89C457.38 1043.18 459.812 1040.99 462.686 1039.54C465.852 1037.95 469.358 1037.15 472.9 1037.22C476.454 1037.14 479.973 1037.93 483.159 1039.51C486.008 1040.93 488.426 1043.09 490.165 1045.76C491.889 1048.47 492.78 1051.63 492.727 1054.84C492.723 1056.57 492.515 1058.3 492.109 1059.98C491.626 1061.89 490.896 1063.72 489.937 1065.43C488.634 1067.74 487.135 1069.93 485.458 1071.97L469.537 1091.27L457.025 1091.34Z" fill="white"/>
<path d="M520.079 1059.21C521.434 1059.25 522.776 1058.93 523.977 1058.3C525.053 1057.72 525.961 1056.88 526.612 1055.84C527.24 1054.77 527.571 1053.55 527.571 1052.3C527.571 1051.06 527.24 1049.84 526.612 1048.76C525.969 1047.73 525.058 1046.89 523.977 1046.33C522.773 1045.71 521.433 1045.4 520.079 1045.42C518.713 1045.4 517.363 1045.71 516.144 1046.33C515.028 1046.87 514.085 1047.72 513.418 1048.76C512.791 1049.84 512.46 1051.06 512.46 1052.3C512.46 1053.55 512.791 1054.77 513.418 1055.84C514.093 1056.89 515.033 1057.74 516.144 1058.3C517.359 1058.93 518.712 1059.24 520.079 1059.21ZM520.079 1083.94C521.869 1083.98 523.647 1083.63 525.286 1082.9C526.69 1082.27 527.885 1081.26 528.73 1079.97C529.554 1078.68 529.981 1077.18 529.956 1075.65C529.994 1074.12 529.567 1072.61 528.73 1071.33C527.868 1070.08 526.676 1069.09 525.286 1068.47C523.646 1067.75 521.869 1067.39 520.079 1067.43C518.3 1067.39 516.534 1067.74 514.908 1068.47C513.534 1069.09 512.359 1070.08 511.51 1071.33C510.67 1072.61 510.242 1074.12 510.283 1075.65C510.256 1077.18 510.683 1078.68 511.51 1079.97C512.341 1081.25 513.52 1082.27 514.908 1082.9C516.533 1083.63 518.3 1083.98 520.079 1083.94ZM520.079 1092.11C516.377 1092.2 512.704 1091.46 509.329 1089.93C506.488 1088.65 504.053 1086.61 502.287 1084.04C500.649 1081.63 499.784 1078.78 499.806 1075.86C499.713 1072.66 500.77 1069.53 502.786 1067.03C505.078 1064.44 508.089 1062.59 511.437 1061.71L510.828 1064.06C508.212 1063.31 505.954 1061.64 504.468 1059.36C502.927 1057.08 502.113 1054.39 502.132 1051.64C502.092 1048.96 502.893 1046.33 504.422 1044.13C506.036 1041.87 508.235 1040.09 510.783 1038.99C513.725 1037.72 516.909 1037.1 520.115 1037.17C523.285 1037.1 526.433 1037.72 529.338 1038.99C531.878 1040.11 534.073 1041.88 535.699 1044.13C537.256 1046.32 538.074 1048.95 538.034 1051.64C538.063 1054.4 537.248 1057.1 535.699 1059.38C534.191 1061.65 531.943 1063.33 529.338 1064.14L528.802 1061.64C532.146 1062.59 535.147 1064.48 537.453 1067.09C539.468 1069.58 540.525 1072.71 540.433 1075.91C540.452 1078.8 539.583 1081.63 537.944 1084.02C536.168 1086.58 533.735 1088.6 530.901 1089.89C527.527 1091.41 523.853 1092.16 520.152 1092.07" fill="white"/>
<path d="M566.676 1092.16C563.655 1092.18 560.657 1091.63 557.835 1090.55C555.167 1089.56 552.741 1088.01 550.72 1086.01C548.775 1084.06 547.388 1081.63 546.703 1078.97L555.79 1075.97C556.569 1078.22 558.042 1080.15 559.997 1081.5C561.975 1082.79 564.298 1083.45 566.658 1083.39C568.487 1083.44 570.304 1083.08 571.974 1082.33C573.435 1081.65 574.672 1080.57 575.536 1079.21C576.427 1077.77 576.879 1076.09 576.835 1074.39C576.885 1072.72 576.446 1071.06 575.572 1069.63C574.703 1068.3 573.466 1067.24 572.01 1066.6C570.294 1065.84 568.432 1065.48 566.558 1065.52C565.543 1065.53 564.53 1065.62 563.532 1065.81C562.566 1065.97 561.625 1066.26 560.734 1066.67L558.362 1062.02L573.128 1046.3H549.866V1038.13H584.832V1045.78L569.993 1062L570.138 1058.37C573.246 1058.34 576.315 1059.05 579.098 1060.43C581.555 1061.68 583.62 1063.59 585.068 1065.93C586.53 1068.41 587.272 1071.24 587.213 1074.11C587.243 1077.4 586.294 1080.62 584.487 1083.37C582.663 1086.14 580.127 1088.37 577.144 1089.83C573.861 1091.44 570.242 1092.25 566.585 1092.19" fill="white"/>
<path d="M90.9506 823.341C67.0249 806.345 67.0249 806.345 61.5 800.577L61.4092 800.486C56.3249 795.647 53.3345 789.013 53.0765 782C53.0837 779.629 53.5709 777.285 54.5087 775.108C55.4465 772.931 56.8155 770.966 58.5331 769.332C60.2507 767.698 62.2815 766.429 64.503 765.601C66.7245 764.772 69.0908 764.402 71.4593 764.513C83.6175 764.513 92.2591 774.06 97.1479 792.891L98.2656 797.197L140.847 785.551L139.774 781.6C129.697 744.627 106.071 725.087 71.4502 725.087C54.7253 724.638 38.4062 730.274 25.5251 740.948C19.753 746.039 15.1484 752.315 12.0259 759.348C8.90348 766.381 7.33684 774.006 7.43307 781.7C7.41381 795.58 12.2336 809.033 21.0634 819.744C29.8777 830.273 31.3043 831.635 63.5537 855.281C90.8143 875.185 95.6667 882.588 95.6667 893.435C95.7294 896.206 95.2056 898.959 94.1298 901.514C93.0539 904.069 91.4502 906.367 89.4238 908.259C87.3974 910.151 84.994 911.594 82.3711 912.493C79.7481 913.391 76.9648 913.726 74.2035 913.474C57.5836 913.474 47.5244 902.101 43.4535 878.709L42.6357 873.986L0 885.641L0.654256 889.338C8.12368 931.516 32.8673 952.927 74.1944 952.927C91.7415 953.579 108.927 947.829 122.546 936.748C128.596 931.509 133.415 924.999 136.657 917.683C139.899 910.367 141.485 902.425 141.301 894.425C141.203 879.118 135.627 864.353 125.581 852.801C115.254 841.647 103.631 831.767 90.9597 823.369" fill="black"/>
<path d="M156.849 949.711H201.12V854.882H252.406V816.093H201.12V767.038H270.18V728.249H156.849V949.711Z" fill="black"/>
<path d="M282.329 949.711H326.601V854.882H377.887V816.093H326.601V767.038H395.661V728.249H282.329V949.711Z" fill="black"/>
<path d="M407.81 949.711H520.124V910.922H452.054V853.601H502.314V814.812H452.054V767.075H520.097V728.285H407.81V949.711Z" fill="black"/>
<path d="M623.56 870.68C623.876 879.035 623.232 887.398 621.643 895.607C620.998 900.646 618.501 905.267 614.639 908.569C610.776 911.871 605.823 913.62 600.743 913.475C596.945 913.657 593.178 912.711 589.916 910.757C586.655 908.803 584.045 905.927 582.415 902.492C579.429 892.744 578.253 882.532 578.944 872.36V801.504C578.944 784.744 579.852 779.157 583.778 773.007L583.887 772.816C585.676 770.035 588.19 767.794 591.159 766.336C594.128 764.877 597.438 764.257 600.734 764.54C615.636 764.54 622.87 775.278 622.87 797.352V806.046H667.177V795.454C667.177 751.414 642.343 725.133 600.761 725.133C591.046 724.5 581.314 726.111 572.322 729.841C563.329 733.571 555.315 739.321 548.902 746.645C537.607 760.943 534.681 773.597 534.681 808.226V867.936C534.681 900.194 537.28 913.502 546.276 927.274C556.99 943.825 576.454 952.946 601.097 952.946C610.371 953.552 619.664 952.126 628.329 948.766C636.993 945.407 644.818 940.195 651.257 933.497C663.506 917.753 669.535 898.056 668.195 878.156V866.583H623.669L623.56 870.68Z" fill="black"/>
<path d="M731.749 800.84C731.749 784.135 732.775 779.184 735.674 773.742C737.843 770.875 740.647 768.549 743.867 766.947C747.086 765.346 750.633 764.513 754.23 764.513C757.826 764.513 761.373 765.346 764.592 766.947C767.812 768.549 770.616 770.875 772.785 773.742C776.056 779.565 776.71 784.125 776.71 800.84V877.147C776.71 893.862 776.047 898.422 772.812 904.182C770.65 907.061 767.848 909.4 764.628 911.012C761.407 912.624 757.856 913.467 754.254 913.473C750.653 913.479 747.099 912.649 743.873 911.048C740.647 909.446 737.837 907.118 735.665 904.245C732.766 898.795 731.74 893.853 731.74 877.147L731.749 800.84ZM807.17 747.298C800.267 740.267 792.032 734.682 782.945 730.869C773.858 727.056 764.102 725.092 754.248 725.092C744.393 725.092 734.637 727.056 725.55 730.869C716.464 734.682 708.228 740.267 701.326 747.298C691.503 760.207 687.495 775.532 687.495 800.195V877.783C687.495 902.446 691.503 917.753 701.335 930.689C708.237 937.722 716.472 943.308 725.559 947.122C734.646 950.935 744.402 952.899 754.257 952.899C764.112 952.899 773.868 950.935 782.955 947.122C792.042 943.308 800.277 937.722 807.179 930.689C817.002 917.781 821.009 902.456 821.009 877.792V800.204C821.009 775.541 817.002 760.234 807.179 747.298" fill="black"/>
</g>
</g>
<defs>
<clipPath id="clip0_282_609">
<rect width="821" height="1246" fill="white"/>
</clipPath>
</defs>
</svg>
