<svg width="600" height="600" viewBox="0 0 600 600" fill="none" xmlns="http://www.w3.org/2000/svg">
<path d="M566.667 600H33.3333C28.9556 600.001 24.6206 599.14 20.5759 597.465C16.5312 595.79 12.8561 593.335 9.76057 590.239C6.66506 587.144 4.20979 583.469 2.53503 579.424C0.860281 575.379 -0.00113752 571.044 1.12735e-06 566.667V33.3333C-0.00113752 28.9556 0.860281 24.6206 2.53503 20.5759C4.20979 16.5312 6.66506 12.8561 9.76057 9.76057C12.8561 6.66506 16.5312 4.20979 20.5759 2.53503C24.6206 0.860281 28.9556 -0.00113752 33.3333 1.12735e-06H333.333C342.174 1.12735e-06 350.652 3.51189 356.904 9.76311C363.155 16.0143 366.667 24.4928 366.667 33.3333C366.667 42.1739 363.155 50.6523 356.904 56.9036C350.652 63.1548 342.174 66.6667 333.333 66.6667H66.6667V533.333H533.333V66.6667H466.667C457.826 66.6667 449.348 63.1548 443.096 56.9036C436.845 50.6523 433.333 42.1739 433.333 33.3333C433.333 24.4928 436.845 16.0143 443.096 9.76311C449.348 3.51189 457.826 1.12735e-06 466.667 1.12735e-06H566.667C571.044 -0.00113752 575.379 0.860281 579.424 2.53503C583.469 4.20979 587.144 6.66506 590.239 9.76057C593.335 12.8561 595.79 16.5312 597.465 20.5759C599.14 24.6206 600.001 28.9556 600 33.3333V566.667C600.001 571.044 599.14 575.379 597.465 579.424C595.79 583.469 593.335 587.144 590.239 590.239C587.144 593.335 583.469 595.79 579.424 597.465C575.379 599.14 571.044 600.001 566.667 600Z" fill="#FFC200"/>
<path d="M233.333 33.334V266.667L300 200.001L366.667 266.667V33.334H233.333Z" fill="#FFC200"/>
</svg>
