<svg xmlns="http://www.w3.org/2000/svg" xmlns:xlink="http://www.w3.org/1999/xlink" id="Group_372903" data-name="Group 372903" width="90.35" height="137.162" viewBox="0 0 90.35 137.162"><defs><clipPath id="clip-path"><rect id="Rectangle_203761" data-name="Rectangle 203761" width="90.35" height="137.162" fill="none"></rect></clipPath></defs><g id="Group_372828" data-name="Group 372828" transform="translate(0)" clip-path="url(#clip-path)"><path id="Path_283697" data-name="Path 283697" d="M19.246,247.932c11.957,13.958,35.437,21.559,35.437,21.559s21.359-6.979,32.41-20.73a41.874,41.874,0,0,0,5.735-9.563H13.483a42.909,42.909,0,0,0,5.763,8.734" transform="translate(-7.034 -132.329)" fill="#af0011"></path><path id="Path_283698" data-name="Path 283698" d="M89.262,73.107c-2.691-10.58-8.424-20.246-7.428-29.436.453-6.772,6.341-10.987,6.341-10.987S76.943,36.415,70.964,46.849s-6.7,26.188-6.7,26.188-1.9-2.626-1.54-16.238-1.01-27.254-4.167-32.891C46.6,2.556,34.187,0,34.187,0s6.25,8.43,6.975,17.275C41.706,32.684,35.3,40.6,32.738,53.621c-2.378,12.072-1.087,18.657-1.087,18.657s-1.31-1.865-2.717-7.808c-1.49-6.292-.453-11.47-5.616-22.042C18.516,32.269,7.465,28.538,7.465,28.538a26.578,26.578,0,0,1,4.258,13.474c.272,9.743-5.236,18.184-7.881,28.054A56.949,56.949,0,0,0,2.051,79.7c.114-.113.232-.225.354-.332A9.75,9.75,0,0,1,8.89,77.094a9.375,9.375,0,0,1,6.154,2.074,8.983,8.983,0,0,1,1.16,1.158v-2.88H60.35V79.58a9.394,9.394,0,0,1,6.787-2.486,9.237,9.237,0,0,1,6.933,2.712,8.2,8.2,0,0,1,1.309,1.847H75.7a8.478,8.478,0,0,1,.813-1.3l0,0v0a7.827,7.827,0,0,1,3.242-2.467,11.927,11.927,0,0,1,8.555,0,8.115,8.115,0,0,1,2.193,1.35,61.178,61.178,0,0,0-1.24-6.131" transform="translate(-1.07 0)" fill="#af0011"></path><g id="Group_373006" data-name="Group 373006" transform="translate(31.011 114.178)"><path id="Path_283699" data-name="Path 283699" d="M72.669,255.849v-5.86h4.168v.944H73.814v1.5H76.67v.944H73.814v1.526h3.023v.944Z" transform="translate(-72.669 -249.895)" fill="#fff"></path><path id="Path_283700" data-name="Path 283700" d="M81.511,256.8a2.424,2.424,0,0,1-1.276-.327,1.678,1.678,0,0,1-.746-.885l.825-.37a1.379,1.379,0,0,0,.493.566,1.264,1.264,0,0,0,.7.2.816.816,0,0,0,.48-.126.387.387,0,0,0,.176-.33.308.308,0,0,0-.071-.208.6.6,0,0,0-.193-.142,1.556,1.556,0,0,0-.265-.1l-.75-.2a1.817,1.817,0,0,1-.88-.48,1.084,1.084,0,0,1-.3-.763,1.135,1.135,0,0,1,.215-.688,1.406,1.406,0,0,1,.6-.46,2.2,2.2,0,0,1,.88-.165,2.225,2.225,0,0,1,1.145.291,1.623,1.623,0,0,1,.707.818l-.842.37a.963.963,0,0,0-.4-.464,1.154,1.154,0,0,0-.623-.174.723.723,0,0,0-.438.118.365.365,0,0,0-.16.307.323.323,0,0,0,.067.2.49.49,0,0,0,.189.142,2.261,2.261,0,0,0,.282.1l.733.2a1.912,1.912,0,0,1,.871.472,1.062,1.062,0,0,1,.308.771,1.109,1.109,0,0,1-.219.681,1.441,1.441,0,0,1-.606.46,2.312,2.312,0,0,1-.91.165" transform="translate(-74.85 -250.748)" fill="#fff"></path><path id="Path_283701" data-name="Path 283701" d="M88.2,256.244a1.691,1.691,0,0,1-1.2-.4,1.458,1.458,0,0,1-.425-1.121v-1.888h-.792v-.92h.084a.761.761,0,0,0,.522-.165.61.61,0,0,0,.185-.48v-.33h1.1v.976h1.053v.92H87.673v1.833a.762.762,0,0,0,.08.362.516.516,0,0,0,.252.228,1.077,1.077,0,0,0,.442.079,1.333,1.333,0,0,0,.139-.008l.155-.015v.881c-.078.01-.168.021-.269.031a2.6,2.6,0,0,1-.278.016" transform="translate(-76.86 -250.242)" fill="#fff"></path><rect id="Rectangle_203760" data-name="Rectangle 203760" width="1.112" height="1.101" transform="translate(13.247 4.853)" fill="#fff"></rect><path id="Path_283702" data-name="Path 283702" d="M96.435,255.849V250.9H95.223v-.913H97.58v5.86Z" transform="translate(-79.88 -249.895)" fill="#fff"></path><path id="Path_283703" data-name="Path 283703" d="M102.553,252.767a1.112,1.112,0,0,0,.527-.122.92.92,0,0,0,.367-.346.972.972,0,0,0,.135-.508.946.946,0,0,0-.139-.518,1,1,0,0,0-.366-.346,1.061,1.061,0,0,0-.522-.126,1.09,1.09,0,0,0-.522.126.981.981,0,0,0-.375.346,1.018,1.018,0,0,0,0,1.026.937.937,0,0,0,.375.346,1.118,1.118,0,0,0,.522.122M100.81,255.8l2.131-2.564.194.189a1.762,1.762,0,0,1-.244.142,1.006,1.006,0,0,1-.253.078,1.637,1.637,0,0,1-.286.024,2.091,2.091,0,0,1-1.019-.244,1.846,1.846,0,0,1-.7-.665,1.8,1.8,0,0,1-.257-.956,1.832,1.832,0,0,1,.282-1.007,1.981,1.981,0,0,1,.775-.7,2.406,2.406,0,0,1,1.124-.255,2.43,2.43,0,0,1,1.129.252,1.974,1.974,0,0,1,.771.688,1.809,1.809,0,0,1,.282,1,2.44,2.44,0,0,1-.068.566,2.481,2.481,0,0,1-.239.6,5.1,5.1,0,0,1-.493.72l-1.752,2.124Z" transform="translate(-81.526 -249.841)" fill="#fff"></path><path id="Path_283704" data-name="Path 283704" d="M110.167,252.263a.875.875,0,0,0,.429-.1.779.779,0,0,0,.29-.271.772.772,0,0,0,0-.779.746.746,0,0,0-.29-.268.9.9,0,0,0-.429-.1.926.926,0,0,0-.433.1.741.741,0,0,0-.3.268.772.772,0,0,0,0,.779.774.774,0,0,0,.3.271.9.9,0,0,0,.433.1m0,2.722a1.342,1.342,0,0,0,.573-.114.887.887,0,0,0,.379-.323.855.855,0,0,0,.135-.475.834.834,0,0,0-.135-.476.907.907,0,0,0-.379-.315,1.349,1.349,0,0,0-.573-.114,1.321,1.321,0,0,0-.569.114.905.905,0,0,0-.374.315.828.828,0,0,0-.135.476.85.85,0,0,0,.135.475.886.886,0,0,0,.374.323,1.314,1.314,0,0,0,.569.114m0,.9a2.72,2.72,0,0,1-1.183-.24,1.884,1.884,0,0,1-.775-.649,1.58,1.58,0,0,1-.273-.9,1.478,1.478,0,0,1,.328-.972,1.919,1.919,0,0,1,.952-.586l-.067.259a1.249,1.249,0,0,1-.7-.518,1.5,1.5,0,0,1-.257-.85,1.411,1.411,0,0,1,.252-.826,1.682,1.682,0,0,1,.7-.566,2.436,2.436,0,0,1,1.027-.2,2.392,2.392,0,0,1,1.015.2,1.72,1.72,0,0,1,.7.566,1.391,1.391,0,0,1,.257.826,1.493,1.493,0,0,1-.257.853,1.3,1.3,0,0,1-.7.523l-.059-.275a2.011,2.011,0,0,1,.952.6,1.477,1.477,0,0,1,.328.971,1.56,1.56,0,0,1-.274.893,1.9,1.9,0,0,1-.775.646,2.721,2.721,0,0,1-1.183.24" transform="translate(-83.944 -249.841)" fill="#fff"></path><path id="Path_283705" data-name="Path 283705" d="M117.721,255.944a2.68,2.68,0,0,1-.973-.177,2.2,2.2,0,0,1-.783-.5,1.692,1.692,0,0,1-.442-.775l1-.33a1.23,1.23,0,0,0,.463.609,1.284,1.284,0,0,0,.733.208,1.349,1.349,0,0,0,.585-.117.925.925,0,0,0,.392-.343.966.966,0,0,0,.143-.531.951.951,0,0,0-.139-.524.907.907,0,0,0-.392-.334,1.4,1.4,0,0,0-.6-.118,1.851,1.851,0,0,0-.333.031,1.249,1.249,0,0,0-.308.095l-.261-.512,1.625-1.73h-2.56v-.9h3.848v.842l-1.633,1.786.016-.4a2.174,2.174,0,0,1,.986.227,1.657,1.657,0,0,1,.657.606,1.7,1.7,0,0,1,.236.9,1.824,1.824,0,0,1-.3,1.019,2.039,2.039,0,0,1-.808.712,2.541,2.541,0,0,1-1.162.259" transform="translate(-86.37 -249.895)" fill="#fff"></path></g><path id="Path_283706" data-name="Path 283706" d="M10.009,189.47c-2.633-1.871-2.633-1.871-3.241-2.506l-.01-.01a2.96,2.96,0,0,1-.917-2.035,1.933,1.933,0,0,1,2.023-1.925c1.338,0,2.289,1.051,2.827,3.124l.123.474L15.5,185.31l-.118-.435c-1.109-4.07-3.709-6.221-7.519-6.221A7.6,7.6,0,0,0,2.809,180.4a5.884,5.884,0,0,0-1.991,4.486,6.571,6.571,0,0,0,1.5,4.188c.97,1.159,1.127,1.309,4.676,3.912,3,2.191,3.534,3.006,3.534,4.2a2.166,2.166,0,0,1-2.362,2.206c-1.829,0-2.936-1.252-3.384-3.827l-.09-.52L0,196.328l.072.407c.822,4.643,3.545,7,8.093,7a7.961,7.961,0,0,0,5.321-1.781,5.982,5.982,0,0,0,2.064-4.659,7.052,7.052,0,0,0-1.73-4.582,21.01,21.01,0,0,0-3.81-3.24" transform="translate(0 -98.835)" fill="#fff"></path><path id="Path_283707" data-name="Path 283707" d="M36.089,203.816h4.872V193.377h5.644v-4.27H40.961v-5.4h7.6v-4.27H36.089Z" transform="translate(-18.828 -99.27)" fill="#fff"></path><path id="Path_283708" data-name="Path 283708" d="M64.96,203.816h4.872V193.377h5.644v-4.27H69.832v-5.4h7.6v-4.27H64.96Z" transform="translate(-33.89 -99.27)" fill="#fff"></path><path id="Path_283709" data-name="Path 283709" d="M93.831,203.816h12.36v-4.27H98.7v-6.31h5.531v-4.27H98.7v-5.255h7.488v-4.27H93.831Z" transform="translate(-48.952 -99.27)" fill="#fff"></path><path id="Path_283710" data-name="Path 283710" d="M132.8,194.681a12.047,12.047,0,0,1-.211,2.744,2.254,2.254,0,0,1-2.3,1.967,2.12,2.12,0,0,1-2.017-1.209,9.2,9.2,0,0,1-.382-3.317v-7.8c0-1.845.1-2.46.532-3.137l.012-.021a2,2,0,0,1,1.854-.911c1.64,0,2.436,1.182,2.436,3.612v.957H137.6V186.4c0-4.848-2.733-7.741-7.309-7.741a6.981,6.981,0,0,0-5.707,2.368c-1.243,1.574-1.565,2.967-1.565,6.779v6.573c0,3.551.286,5.016,1.276,6.532,1.179,1.822,3.321,2.826,6.033,2.826a7.02,7.02,0,0,0,5.52-2.141,8.944,8.944,0,0,0,1.864-6.092v-1.274h-4.9Z" transform="translate(-64.178 -98.835)" fill="#fff"></path><path id="Path_283711" data-name="Path 283711" d="M163.051,186.993c0-1.839.113-2.384.432-2.983a2.56,2.56,0,0,1,4.084,0c.36.641.432,1.143.432,2.983v8.4c0,1.84-.073,2.342-.429,2.976a2.559,2.559,0,0,1-4.088.007c-.319-.6-.432-1.144-.432-2.983Zm8.3-5.894a8.16,8.16,0,0,0-11.648,0c-1.081,1.421-1.522,3.108-1.522,5.823v8.541c0,2.715.441,4.4,1.523,5.824a8.159,8.159,0,0,0,11.648,0c1.081-1.421,1.522-3.108,1.522-5.823v-8.541c0-2.715-.441-4.4-1.522-5.824" transform="translate(-82.523 -98.835)" fill="#fff"></path></g></svg>