<svg xmlns="http://www.w3.org/2000/svg" width="123" height="44" viewBox="0 0 123 44" fill="none"><g clip-path="url(#clip0_204_323)"><mask id="mask0_204_323" style="mask-type:luminance" maskUnits="userSpaceOnUse" x="0" y="0" width="123" height="44"><path d="M123 0H0V44H123V0Z" fill="white"></path></mask><g mask="url(#mask0_204_323)"><mask id="mask1_204_323" style="mask-type:luminance" maskUnits="userSpaceOnUse" x="1" y="1" width="121" height="42"><path d="M121.785 1.22607H1.21533V42.7741H121.785V1.22607Z" fill="white"></path></mask><g mask="url(#mask1_204_323)"><path d="M117.021 1.22607C119.646 1.22607 121.785 3.38378 121.785 6.03187C121.785 8.67996 119.646 10.8377 117.021 10.8377C114.396 10.8377 112.257 8.67996 112.257 6.03187C112.257 3.38378 114.396 1.22607 117.021 1.22607ZM117.021 10.2247C119.318 10.2247 121.177 8.34895 121.177 6.03187C121.177 3.71479 119.318 1.83906 117.021 1.83906C114.724 1.83906 112.864 3.71479 112.864 6.03187C112.864 8.34895 114.724 10.2247 117.021 10.2247Z" fill="#429BD7"></path><path d="M119.172 7.74841L119.816 8.79048H118.54L117.762 7.62581C117.483 7.20898 117.3 6.95153 117.203 6.84119C117.106 6.73085 116.997 6.6573 116.887 6.62052C116.778 6.58374 116.595 6.55922 116.352 6.55922H116.134V8.77822H115.064V3.45752H117.313C117.884 3.45752 118.285 3.50656 118.54 3.60464C118.795 3.70271 119.002 3.87435 119.16 4.11954C119.318 4.36474 119.391 4.64671 119.391 4.9532C119.391 5.35777 119.269 5.68878 119.038 5.94623C118.807 6.20369 118.455 6.37532 117.993 6.43662C118.224 6.57148 118.418 6.7186 118.564 6.87797C118.71 7.03735 118.917 7.33158 119.172 7.74841ZM118.175 5.41907C118.248 5.30873 118.285 5.17388 118.285 5.0145C118.285 4.8306 118.236 4.69575 118.139 4.58541C118.042 4.47507 117.908 4.40152 117.738 4.377C117.653 4.36474 117.398 4.35248 116.96 4.35248H116.122V5.70104H116.911C117.422 5.70104 117.738 5.67652 117.872 5.63974C117.993 5.5907 118.102 5.51715 118.175 5.41907Z" fill="#429BD7"></path><path d="M112.707 12.37C117.458 13.8411 117.009 15.6433 117.009 15.6433V30.0975H104.236V29.5213C104.236 29.2393 87.635 34.4374 87.635 24.4948C87.635 16.4157 104.236 17.8255 104.236 17.8255C104.236 17.8255 105.864 11.9164 90.1628 17.0164C90.1507 17.0164 90.1507 13.6695 90.1628 13.6695C99.2654 10.6413 108.939 11.2053 112.707 12.37ZM104.26 26.6893V20.5472C104.26 20.5472 101.04 19.9832 101.04 23.4772C101.04 27.7068 104.26 26.677 104.26 26.677" fill="#429BD7"></path><path d="M85.1922 26.616L85.2287 29.1293C85.2287 29.1293 70.0618 33.837 68.567 26.5547C68.5548 26.4934 68.6521 15.6436 68.6521 15.6436H66.6225L66.5861 12.2967H68.6521L68.6885 7.88323L81.9717 1.53271L82.0082 12.2967H85.1922V15.6068L82.1054 15.6436C82.1054 15.6436 82.1054 26.5425 82.0325 26.8735C81.8988 27.56 85.1922 26.616 85.1922 26.616Z" fill="#429BD7"></path><path d="M64.7267 23.9311C64.8118 23.8943 66.1972 25.2551 66.1364 25.3287C63.9246 28.222 57.7023 31.3482 50.8237 31.3482C39.3392 31.3482 35.1343 26.9592 35.1343 21.565C35.1343 16.1707 42.1587 11.7817 50.8237 11.7817C59.4888 11.7817 65.7233 16.3791 65.7233 21.7856C65.7233 21.8592 49.4018 21.8102 48.855 21.8224C48.6727 21.8224 50.2282 26.8611 53.9592 27.2167C57.9818 27.5967 62.4663 25.0958 64.7267 23.9311ZM50.763 19.1498C51.8324 19.1498 53.0234 19.1621 53.0234 19.1498C53.0234 17.3722 51.4678 15.2267 50.7508 15.2267C50.0338 15.2267 48.7699 17.3476 48.7699 19.1498C48.7699 19.1743 49.5963 19.1498 50.763 19.1498Z" fill="#429BD7"></path><path d="M29.9328 33.6038L34.3321 42.7741H1.21533L15.3614 17.1513H3.74315V12.272H34.0404L19.4691 38.5567L29.9328 33.6038Z" fill="#429BD7"></path><path d="M57.1554 40.0279H57.6901C57.6051 39.3537 57.5321 38.5077 57.4592 37.5024C57.3012 38.6549 57.204 39.4885 57.1676 40.0279" fill="#429BD7"></path><path d="M61.895 37.1836V38.5199C62.0652 38.5199 62.1867 38.4954 62.2596 38.4463C62.3325 38.3973 62.369 38.2379 62.369 37.9805V37.6495C62.369 37.4533 62.3325 37.3307 62.2718 37.2694C62.211 37.2081 62.0773 37.1836 61.9072 37.1836" fill="#429BD7"></path><path d="M48.9156 40.0279H49.4504C49.3653 39.3537 49.2924 38.5077 49.2195 37.5024C49.0615 38.6549 48.9643 39.4885 48.9278 40.0279" fill="#429BD7"></path><path d="M33.0682 35.5288L36.5683 42.7743H117.446V35.5288H33.0682ZM49.5841 42.1613L49.499 41.0824H48.94L48.8428 42.1613H47.2386L48.0285 36.1541H50.2647L51.1518 42.1613H49.5719H49.5841ZM54.6033 42.1613H52.1119V36.1541H53.6675V40.9598H54.6033V42.1613ZM57.8238 42.1613L57.7387 41.0824H57.1797L57.0825 42.1613H55.4783L56.2682 36.1541H58.5044L59.3915 42.1613H57.8116H57.8238ZM63.5721 39.3293C63.6815 39.4642 63.7423 39.5745 63.7666 39.6848C63.7909 39.7952 63.803 40.0894 63.803 40.5798V42.1613H62.369V40.163C62.369 39.8442 62.3447 39.6358 62.2961 39.5622C62.2475 39.4887 62.1138 39.4519 61.895 39.4519V42.1613H60.3516V36.1541H61.4454C62.1746 36.1541 62.6728 36.1786 62.928 36.2399C63.1832 36.3012 63.402 36.436 63.56 36.6812C63.7301 36.9142 63.803 37.2819 63.803 37.7969C63.803 38.2627 63.7423 38.5815 63.6329 38.7408C63.5114 38.9002 63.2926 38.9983 62.9523 39.0351C63.2562 39.1086 63.4628 39.219 63.5721 39.3416M69.8674 42.1736H68.5184V38.1156L67.9715 42.1736H67.0114L66.4402 38.2137V42.1736H65.0791V36.1663H67.0843C67.1451 36.5218 67.2059 36.9509 67.2666 37.4413L67.4854 38.9738L67.8378 36.1663H69.8552V42.1736H69.8674ZM74.4247 41.5851C74.3275 41.7935 74.1331 41.9529 73.8535 42.1C73.574 42.2471 73.2337 42.3084 72.857 42.3084C72.4438 42.3084 72.0914 42.2349 71.7997 42.0755C71.508 41.9161 71.3136 41.72 71.2285 41.4748C71.1434 41.2296 71.0948 40.8863 71.0948 40.4327V40.0404H72.5289V40.776C72.5289 40.9966 72.5532 41.1437 72.5896 41.205C72.6261 41.2663 72.699 41.3031 72.8084 41.3031C72.9178 41.3031 72.9907 41.2663 73.0393 41.1805C73.0879 41.0947 73.1122 40.9721 73.1122 40.8127C73.1122 40.4572 73.0636 40.2243 72.9664 40.1139C72.8691 40.0036 72.6261 39.8197 72.2372 39.5622C71.8483 39.3048 71.5931 39.1209 71.4716 38.9983C71.35 38.888 71.2407 38.7163 71.1556 38.5202C71.0705 38.3118 71.0341 38.0543 71.0341 37.7356C71.0341 37.2697 71.0948 36.9387 71.2042 36.7303C71.3257 36.5218 71.508 36.3502 71.7632 36.2276C72.0184 36.105 72.3344 36.0437 72.699 36.0437C73.1001 36.0437 73.4403 36.105 73.732 36.2399C74.0115 36.3747 74.206 36.5341 74.291 36.7303C74.3883 36.9264 74.4247 37.2697 74.4247 37.7478V37.9807H72.9907V37.5394C72.9907 37.331 72.9664 37.1961 72.9299 37.1348C72.8935 37.0735 72.8327 37.049 72.7476 37.049C72.6504 37.049 72.5896 37.0858 72.541 37.1593C72.4924 37.2329 72.4681 37.3555 72.4681 37.5026C72.4681 37.6988 72.4924 37.8581 72.5532 37.9562C72.6018 38.0543 72.7476 38.1769 72.9907 38.324C73.6834 38.7408 74.1209 39.0719 74.291 39.3416C74.4733 39.6113 74.5584 40.0281 74.5584 40.6166C74.5584 41.0457 74.5098 41.3644 74.4126 41.5606M80.2217 42.149H77.7303V36.1418H79.2738V40.9476H80.2217V42.149ZM82.8224 42.149H81.279V36.1418H82.8224V42.149ZM88.8989 42.149H87.5499V38.0911L87.003 42.149H86.0429L85.4718 38.1892V42.149H84.1106V36.1418H86.1159C86.1766 36.4973 86.2374 36.9264 86.2982 37.4168L86.5169 38.9493L86.8694 36.1418H88.8867V42.149H88.8989ZM91.7548 42.149H90.1993V36.1418H91.7548V42.149ZM96.1785 37.3432H95.2549V42.149H93.6993V37.3432H92.7878V36.1418H96.1785V37.3432ZM99.8973 42.149H97.2115V36.1418H99.8001V37.3432H98.7671V38.4834H99.7393V39.6235H98.7671V40.9476H99.8973V42.149ZM104.613 40.3591C104.613 40.8985 104.588 41.2541 104.54 41.438C104.491 41.6219 104.406 41.7567 104.272 41.8671C104.151 41.9651 103.993 42.0387 103.811 42.0755C103.628 42.1123 103.349 42.1368 102.984 42.1368H101.028V36.1295H102.182C102.923 36.1295 103.434 36.1663 103.701 36.2276C103.969 36.3012 104.163 36.4115 104.297 36.5709C104.43 36.7303 104.515 36.9019 104.552 37.098C104.588 37.2942 104.601 37.6743 104.601 38.2382V40.3469L104.613 40.3591Z" fill="#429BD7"></path><path d="M102.923 37.2448C102.923 37.2448 102.741 37.1958 102.583 37.1958V41.1557C102.802 41.1557 102.948 41.1066 102.996 41.0208C103.045 40.935 103.069 40.6898 103.069 40.2852V37.9559C103.069 37.6862 103.069 37.5146 103.045 37.4287C103.033 37.3552 102.984 37.2939 102.923 37.2571" fill="#429BD7"></path></g></g></g><defs><clipPath id="clip0_204_323"><rect width="123" height="44" fill="white"></rect></clipPath></defs></svg>